<svg width="49" height="49" viewBox="0 0 49 49" fill="none" xmlns="http://www.w3.org/2000/svg">
<path d="M46.5967 3.10333C44.9167 1.19 42.42 0 39.6667 0C37.0534 0 34.6734 1.07333 32.97 2.82333C31.99 3.82667 31.2434 5.04 30.8 6.39333C30.4967 7.32667 30.3334 8.30667 30.3334 9.33333C30.3334 11.0833 30.8234 12.74 31.6867 14.14C32.1534 14.9333 32.76 15.6567 33.46 16.2633C35.0934 17.7567 37.2634 18.6667 39.6667 18.6667C40.6934 18.6667 41.6734 18.5033 42.5834 18.1767C44.73 17.5 46.5267 16.03 47.6467 14.14C48.1367 13.3467 48.51 12.4367 48.72 11.5033C48.9067 10.8033 49 10.08 49 9.33333C49 6.95333 48.09 4.76 46.5967 3.10333ZM43.1434 11.0367H41.4167V12.8567C41.4167 13.8133 40.6234 14.6067 39.6667 14.6067C38.71 14.6067 37.9167 13.8133 37.9167 12.8567V11.0367H36.19C35.2334 11.0367 34.44 10.2433 34.44 9.28667C34.44 8.33 35.2334 7.53667 36.19 7.53667H37.9167V5.88C37.9167 4.92333 38.71 4.13 39.6667 4.13C40.6234 4.13 41.4167 4.92333 41.4167 5.88V7.53667H43.1434C44.1 7.53667 44.8934 8.33 44.8934 9.28667C44.8934 10.2433 44.1234 11.0367 43.1434 11.0367Z" fill="white"/>
<path d="M46.6667 25.6666C46.6667 22.6099 46.0833 19.6699 44.9867 16.9866C44.2633 17.4999 43.4467 17.8966 42.5833 18.1766C42.3267 18.2699 42.07 18.3399 41.79 18.4099C42.6767 20.6499 43.1667 23.0999 43.1667 25.6666C43.1667 31.0799 40.9733 36.0032 37.4267 39.5966C36.75 38.7332 35.8867 37.9399 34.86 37.2632C28.5367 33.0166 18.1767 33.0166 11.8067 37.2632C10.78 37.9399 9.94 38.7332 9.24 39.5966C5.69333 36.0032 3.5 31.0799 3.5 25.6666C3.5 14.7233 12.39 5.83325 23.3333 5.83325C25.8767 5.83325 28.3267 6.32325 30.5667 7.20992C30.6367 6.92992 30.7067 6.67325 30.8 6.39325C31.08 5.52992 31.4767 4.73659 32.0133 4.01325C29.33 2.91659 26.39 2.33325 23.3333 2.33325C10.4767 2.33325 0 12.8099 0 25.6666C0 32.4333 2.91667 38.5233 7.53667 42.7933C7.53667 42.8166 7.53667 42.8166 7.51333 42.8399C7.74667 43.0733 8.02667 43.2599 8.26 43.4699C8.4 43.5866 8.51667 43.7033 8.65667 43.7966C9.07667 44.1466 9.54333 44.4733 9.98667 44.7999C10.15 44.9166 10.29 45.0099 10.4533 45.1266C10.8967 45.4299 11.3633 45.7099 11.8533 45.9666C12.0167 46.0599 12.2033 46.1766 12.3667 46.2699C12.8333 46.5266 13.3233 46.7599 13.8367 46.9699C14.0233 47.0632 14.21 47.1566 14.3967 47.2266C14.91 47.4366 15.4233 47.6232 15.9367 47.7866C16.1233 47.8566 16.31 47.9266 16.4967 47.9732C17.0567 48.1366 17.6167 48.2766 18.1767 48.4166C18.34 48.4633 18.5033 48.5099 18.69 48.5332C19.3433 48.6732 19.9967 48.7666 20.6733 48.8366C20.7667 48.8366 20.86 48.8599 20.9533 48.8833C21.7467 48.9533 22.54 48.9999 23.3333 48.9999C24.1267 48.9999 24.92 48.9533 25.69 48.8833C25.7833 48.8833 25.8767 48.8599 25.97 48.8366C26.6467 48.7666 27.3 48.6732 27.9533 48.5332C28.1167 48.5099 28.28 48.4399 28.4667 48.4166C29.0267 48.2766 29.61 48.1599 30.1467 47.9732C30.3333 47.9032 30.52 47.8332 30.7067 47.7866C31.22 47.5999 31.7567 47.4366 32.2467 47.2266C32.4333 47.1566 32.62 47.0632 32.8067 46.9699C33.2967 46.7599 33.7867 46.5266 34.2767 46.2699C34.4633 46.1766 34.6267 46.0599 34.79 45.9666C35.2567 45.6866 35.7233 45.4299 36.19 45.1266C36.3533 45.0333 36.4933 44.9166 36.6567 44.7999C37.1233 44.4733 37.5667 44.1466 37.9867 43.7966C38.1267 43.6799 38.2433 43.5632 38.3833 43.4699C38.64 43.2599 38.8967 43.0499 39.13 42.8399C39.13 42.8166 39.13 42.8166 39.1067 42.7933C43.75 38.5233 46.6667 32.4333 46.6667 25.6666Z" fill="white"/>
<path d="M23.3333 13.8359C18.5033 13.8359 14.5833 17.7559 14.5833 22.586C14.5833 27.3226 18.2933 31.1726 23.2166 31.3126H23.4266H23.59H23.6366C28.35 31.1493 32.06 27.3226 32.0833 22.586C32.0833 17.7559 28.1633 13.8359 23.3333 13.8359Z" fill="white"/>
</svg>
