<svg width="32" height="32" viewBox="0 0 32 32" fill="none" xmlns="http://www.w3.org/2000/svg">
<path d="M20.228 32H11.4012C3.41302 32 0 28.587 0 20.599V11.7724C0 3.78432 3.41302 0.371365 11.4012 0.371365H14.3435C14.9467 0.371365 15.4469 0.871538 15.4469 1.47469C15.4469 2.07784 14.9467 2.57801 14.3435 2.57801H11.4012C4.61934 2.57801 2.20669 4.99062 2.20669 11.7724V20.599C2.20669 27.3807 4.61934 29.7933 11.4012 29.7933H20.228C27.0099 29.7933 29.4226 27.3807 29.4226 20.599V17.6568C29.4226 17.0536 29.9228 16.5535 30.5259 16.5535C31.1291 16.5535 31.6293 17.0536 31.6293 17.6568V20.599C31.6293 28.587 28.2162 32 20.228 32Z" fill="white"/>
<path d="M10.6647 24.5564C9.76728 24.5564 8.94345 24.2327 8.34029 23.6443C7.61943 22.9235 7.3105 21.879 7.47232 20.7757L8.10491 16.3476C8.2226 15.4944 8.78163 14.3911 9.38479 13.7879L20.9772 2.19562C23.9048 -0.731872 26.8764 -0.731872 29.804 2.19562C31.4075 3.79912 32.1284 5.43203 31.9812 7.06495C31.8488 8.38894 31.1427 9.68351 29.804 11.0075L18.2115 22.5998C17.6083 23.203 16.505 23.762 15.6517 23.8797L11.2237 24.5123C11.0325 24.5564 10.8412 24.5564 10.6647 24.5564ZM22.5366 3.75498L10.9442 15.3473C10.6647 15.6268 10.341 16.2741 10.2822 16.6566L9.64959 21.0846C9.59075 21.5112 9.67901 21.8643 9.89968 22.0849C10.1204 22.3056 10.4734 22.3939 10.9001 22.335L15.3281 21.7025C15.7106 21.6436 16.3726 21.32 16.6374 21.0405L28.2299 9.44814C29.1861 8.49192 29.6863 7.63868 29.7598 6.84429C29.8481 5.88808 29.3479 4.87302 28.2299 3.74027C25.8761 1.38651 24.2578 2.04851 22.5366 3.75498Z" fill="white"/>
<path d="M27.3623 12.9931C27.2594 12.9931 27.1564 12.9784 27.0681 12.9489C23.199 11.8603 20.1244 8.78574 19.0358 4.91674C18.8739 4.3283 19.2123 3.72515 19.8007 3.54862C20.3892 3.3868 20.9924 3.72515 21.1542 4.31359C22.0369 7.44704 24.5231 9.93319 27.6566 10.8159C28.245 10.9777 28.5834 11.5955 28.4216 12.184C28.2892 12.6841 27.8478 12.9931 27.3623 12.9931Z" fill="white"/>
</svg>
