<svg width="54" height="57" viewBox="0 0 54 57" fill="none" xmlns="http://www.w3.org/2000/svg">
<path d="M7.4691 2.23506L6.94663 53.873C6.93473 55.0492 5.35524 56.0059 3.46246 55.9834C1.56968 55.9608 0.00992987 54.9667 0.0218305 53.7905L0.544298 2.15255C0.556199 0.976356 2.13569 0.0196738 4.02847 0.0422256C5.92125 0.0647774 7.481 1.05886 7.4691 2.23506Z" fill="white"/>
<path d="M30.4341 2.36041L30.3185 53.8935C30.3159 55.0674 28.7439 56.0372 26.851 56.033C24.9581 56.0287 23.3906 55.0518 23.3932 53.878L23.5088 2.34488C23.5115 1.17107 25.0834 0.201186 26.9763 0.205432C28.8692 0.209678 30.4367 1.1866 30.4341 2.36041Z" fill="white"/>
<path d="M53.5184 2.41218L53.4028 53.9453C53.4001 55.1191 51.8282 56.089 49.9353 56.0848C48.0424 56.0805 46.4749 55.1036 46.4775 53.9298L46.5931 2.39665C46.5958 1.22284 48.1677 0.252955 50.0606 0.257201C51.9535 0.261447 53.521 1.23837 53.5184 2.41218Z" fill="white"/>
</svg>
