<svg width="49" height="49" viewBox="0 0 49 49" fill="none" xmlns="http://www.w3.org/2000/svg">
<path d="M48.8099 24.4049C48.8099 10.9578 37.8521 0 24.4049 0C10.9578 0 0 10.9578 0 24.4049C0 31.4824 3.05062 37.8521 7.8828 42.3182C7.8828 42.3426 7.8828 42.3426 7.85839 42.367C8.10244 42.611 8.3953 42.8063 8.63935 43.0259C8.78578 43.1479 8.9078 43.27 9.05423 43.3676C9.49352 43.7337 9.98162 44.0753 10.4453 44.417C10.6161 44.539 10.7626 44.6366 10.9334 44.7587C11.3971 45.0759 11.8852 45.3688 12.3977 45.6372C12.5685 45.7349 12.7638 45.8569 12.9346 45.9545C13.4227 46.223 13.9352 46.467 14.4721 46.6866C14.6674 46.7843 14.8626 46.8819 15.0578 46.9551C15.5948 47.1748 16.1317 47.37 16.6686 47.5408C16.8638 47.614 17.0591 47.6873 17.2543 47.7361C17.84 47.9069 18.4257 48.0533 19.0114 48.1998C19.1823 48.2486 19.3531 48.2974 19.5484 48.3218C20.2317 48.4682 20.915 48.5658 21.6228 48.639C21.7204 48.639 21.818 48.6635 21.9156 48.6879C22.7454 48.7611 23.5752 48.8099 24.4049 48.8099C25.2347 48.8099 26.0645 48.7611 26.8698 48.6879C26.9675 48.6879 27.0651 48.6635 27.1627 48.639C27.8704 48.5658 28.5538 48.4682 29.2371 48.3218C29.408 48.2974 29.5788 48.2242 29.774 48.1998C30.3597 48.0533 30.9699 47.9313 31.5312 47.7361C31.7264 47.6628 31.9217 47.5896 32.1169 47.5408C32.6538 47.3456 33.2151 47.1748 33.7276 46.9551C33.9229 46.8819 34.1181 46.7843 34.3133 46.6866C34.8258 46.467 35.3384 46.223 35.8509 45.9545C36.0461 45.8569 36.2169 45.7349 36.3878 45.6372C36.8759 45.3444 37.364 45.0759 37.8521 44.7587C38.0229 44.661 38.1693 44.539 38.3402 44.417C38.8283 44.0753 39.292 43.7337 39.7312 43.3676C39.8777 43.2456 39.9997 43.1235 40.1461 43.0259C40.4146 42.8063 40.683 42.5866 40.9271 42.367C40.9271 42.3426 40.9271 42.3426 40.9027 42.3182C45.7593 37.8521 48.8099 31.4824 48.8099 24.4049ZM36.461 36.5342C29.8472 32.0925 19.0114 32.0925 12.3489 36.5342C11.2751 37.2419 10.3965 38.0717 9.66436 38.9747C5.95481 35.2163 3.66074 30.0669 3.66074 24.4049C3.66074 12.959 12.959 3.66074 24.4049 3.66074C35.8509 3.66074 45.1491 12.959 45.1491 24.4049C45.1491 30.0669 42.8551 35.2163 39.1455 38.9747C38.4378 38.0717 37.5348 37.2419 36.461 36.5342Z" fill="white"/>
<path d="M24.405 12.0309C19.3531 12.0309 15.2531 16.1309 15.2531 21.1827C15.2531 26.1369 19.1335 30.1638 24.2829 30.3102H24.5026H24.6734H24.7222C29.652 30.1394 33.5324 26.1369 33.5568 21.1827C33.5568 16.1309 29.4568 12.0309 24.405 12.0309Z" fill="white"/>
</svg>
