<svg width="223" height="223" viewBox="0 0 223 223" fill="none" xmlns="http://www.w3.org/2000/svg">
<path d="M223 111.5C223 50.0635 172.936 0 111.5 0C50.0635 0 0 50.0635 0 111.5C0 143.835 13.9375 172.936 36.0145 193.341C36.0145 193.452 36.0145 193.453 35.903 193.564C37.018 194.679 38.356 195.571 39.471 196.574C40.14 197.132 40.6975 197.689 41.3665 198.135C43.3735 199.808 45.6035 201.369 47.722 202.93C48.5025 203.488 49.1715 203.933 49.952 204.491C52.0705 205.94 54.3005 207.279 56.642 208.505C57.4225 208.951 58.3145 209.508 59.095 209.954C61.325 211.181 63.6665 212.296 66.1195 213.299C67.0115 213.745 67.9035 214.191 68.7955 214.526C71.2485 215.529 73.7015 216.421 76.1545 217.202C77.0465 217.536 77.9385 217.871 78.8305 218.094C81.5065 218.874 84.1825 219.543 86.8585 220.212C87.639 220.435 88.4195 220.658 89.3115 220.77C92.4335 221.439 95.5555 221.885 98.789 222.219C99.235 222.219 99.681 222.331 100.127 222.443C103.918 222.777 107.709 223 111.5 223C115.291 223 119.082 222.777 122.761 222.443C123.207 222.443 123.653 222.331 124.099 222.219C127.333 221.885 130.455 221.439 133.577 220.77C134.357 220.658 135.138 220.324 136.03 220.212C138.706 219.543 141.493 218.986 144.058 218.094C144.95 217.759 145.842 217.425 146.734 217.202C149.187 216.31 151.751 215.529 154.093 214.526C154.985 214.191 155.877 213.745 156.769 213.299C159.11 212.296 161.452 211.181 163.794 209.954C164.686 209.508 165.466 208.951 166.246 208.505C168.476 207.167 170.706 205.94 172.936 204.491C173.717 204.045 174.386 203.488 175.166 202.93C177.396 201.369 179.515 199.808 181.522 198.135C182.191 197.578 182.749 197.02 183.418 196.574C184.644 195.571 185.87 194.568 186.985 193.564C186.985 193.453 186.985 193.452 186.874 193.341C209.062 172.936 223 143.835 223 111.5ZM166.581 166.915C136.365 146.622 86.8585 146.622 56.419 166.915C51.513 170.149 47.499 173.94 44.154 178.065C27.206 160.894 16.725 137.368 16.725 111.5C16.725 59.2065 59.2065 16.725 111.5 16.725C163.793 16.725 206.275 59.2065 206.275 111.5C206.275 137.368 195.794 160.894 178.846 178.065C175.613 173.94 171.487 170.149 166.581 166.915Z" fill="white"/>
<path d="M111.5 54.9661C88.4196 54.9661 69.6876 73.6981 69.6876 96.7787C69.6876 119.413 87.4161 137.811 110.943 138.48H111.946H112.727H112.95C135.473 137.699 153.201 119.413 153.313 96.7787C153.313 73.6981 134.581 54.9661 111.5 54.9661Z" fill="white"/>
</svg>
