<svg width="49" height="49" viewBox="0 0 49 49" fill="none" xmlns="http://www.w3.org/2000/svg">
<path d="M37.5495 48.7567H11.2603C5.03984 48.7567 -6.10352e-05 43.6941 -6.10352e-05 37.4737V20.6513C-6.10352e-05 17.5637 1.90693 13.6816 4.35877 11.7746L16.5953 2.23966C20.2731 -0.620814 26.153 -0.757028 29.9669 1.92183L43.9969 11.7519C46.6985 13.6362 48.8098 17.6772 48.8098 20.9691V37.4964C48.8098 43.6941 43.7699 48.7567 37.5495 48.7567ZM18.6839 4.91853L6.44738 14.4535C4.83552 15.7248 3.40528 18.608 3.40528 20.6513V37.4737C3.40528 41.8098 6.92413 45.3513 11.2603 45.3513H37.5495C41.8856 45.3513 45.4045 41.8325 45.4045 37.4964V20.9691C45.4045 18.7896 43.838 15.7702 42.0445 14.5443L28.0145 4.71421C25.4265 2.89803 21.1585 2.98884 18.6839 4.91853Z" fill="white"/>
<path d="M24.4049 39.6758C23.4741 39.6758 22.7022 38.9039 22.7022 37.9731V31.1624C22.7022 30.2316 23.4741 29.4597 24.4049 29.4597C25.3357 29.4597 26.1075 30.2316 26.1075 31.1624V37.9731C26.1075 38.9039 25.3357 39.6758 24.4049 39.6758Z" fill="white"/>
</svg>
