<svg width="49" height="49" viewBox="0 0 49 49" fill="none" xmlns="http://www.w3.org/2000/svg">
<path d="M32.6437 49H32.3404C21.9806 49 16.9874 44.8252 16.1241 35.4737C16.0308 34.4956 16.7308 33.613 17.7107 33.5175C18.6674 33.4221 19.5307 34.1616 19.624 35.1397C20.3007 42.6305 23.7539 45.4216 32.3637 45.4216H32.667C42.1635 45.4216 45.5234 41.9864 45.5234 32.277V16.723C45.5234 7.01362 42.1635 3.57838 32.667 3.57838H32.3637C23.7073 3.57838 20.254 6.41723 19.624 14.0511C19.5074 15.0292 18.714 15.7687 17.7107 15.6733C16.7308 15.6017 16.0308 14.7191 16.1008 13.741C16.8941 4.24634 21.9106 0 32.3404 0H32.6437C44.1001 0 49 5.00973 49 16.723V32.277C49 43.9903 44.1001 49 32.6437 49Z" fill="white"/>
<path d="M31.8026 26.2892H1.74996C0.793315 26.2892 0 25.4781 0 24.5C0 23.5219 0.793315 22.7108 1.74996 22.7108H31.8026C32.7592 22.7108 33.5525 23.5219 33.5525 24.5C33.5525 25.4781 32.7826 26.2892 31.8026 26.2892Z" fill="white"/>
<path d="M26.5989 34.2812C26.1555 34.2812 25.7122 34.1142 25.3622 33.7564C24.6856 33.0646 24.6856 31.9195 25.3622 31.2277L31.9421 24.5003L25.3622 17.7729C24.6856 17.0811 24.6856 15.936 25.3622 15.2442C26.0389 14.5524 27.1588 14.5524 27.8355 15.2442L35.652 23.2359C36.3286 23.9278 36.3286 25.0729 35.652 25.7647L27.8355 33.7564C27.4855 34.1142 27.0422 34.2812 26.5989 34.2812Z" fill="white"/>
</svg>
